<?xml version="1.0" encoding="iso-8859-1"?>
<!-- Uploaded to: SVG Repo, www.svgrepo.com, Generator: SVG Repo Mixer Tools -->
<svg fill="#000000" version="1.1" id="Layer_1" xmlns="http://www.w3.org/2000/svg" xmlns:xlink="http://www.w3.org/1999/xlink" 
	 viewBox="0 0 470.529 470.529" xml:space="preserve">
<g id="XMLID_239_">
	<g>
		<g>
			<path d="M432.028,181.786h-1.718v29.237c0,0.256-0.013,0.508-0.019,0.763h1.737c4.687,0,8.5,3.813,8.5,8.5v188.31
				c0,4.686-3.813,8.5-8.5,8.5H148.012c-4.687,0-8.5-3.814-8.5-8.5V353.73h-30v54.866c0,21.229,17.271,38.5,38.5,38.5h284.017
				c21.23,0,38.5-17.271,38.5-38.5v-188.31C470.528,199.056,453.258,181.786,432.028,181.786z"/>
			<path d="M400.421,220.911c5.461,0,9.889-4.428,9.889-9.889v-59.334c0-5.461-4.427-9.889-9.889-9.889
				c-4.398,0-8.121,2.873-9.406,6.843v65.426C392.301,218.038,396.023,220.911,400.421,220.911z"/>
			<path d="M399.532,353.439c8.284,0,15-6.716,15-15s-6.716-15-15-15h-20.191c-11.235,16.655-29.596,28.113-50.671,30H399.532z"/>
			<path d="M399.532,369.457H185.319c-8.284,0-15,6.716-15,15s6.716,15,15,15h214.213c8.284,0,15-6.716,15-15
				S407.816,369.457,399.532,369.457z"/>
			<path d="M361.017,285.229V96.919c0-21.229-17.271-38.5-38.5-38.5h-7.202v30h7.202c4.686,0,8.5,3.814,8.5,8.5v188.31
				c0,4.686-3.814,8.5-8.5,8.5H38.5c-4.687,0-8.5-3.814-8.5-8.5V96.919c0-4.686,3.813-8.5,8.5-8.5h6.717v-30H38.5
				c-21.229,0-38.5,17.27-38.5,38.5v188.309c0,21.375,17.426,38.5,38.5,38.5h284.016
				C343.74,323.729,361.017,306.464,361.017,285.229z"/>
			<rect x="245.208" y="58.419" width="10.328" height="30"/>
			<rect x="104.996" y="58.419" width="10.328" height="30"/>
			<rect x="175.102" y="58.419" width="10.328" height="30"/>
			<path d="M215.319,102.545c5.462,0,9.889-4.428,9.889-9.889V33.322c0-5.462-4.427-9.889-9.889-9.889
				c-5.461,0-9.889,4.427-9.889,9.889v59.334C205.43,98.118,209.858,102.545,215.319,102.545z"/>
			<path d="M145.213,102.545c5.461,0,9.889-4.428,9.889-9.889V33.322c0-5.462-4.428-9.889-9.889-9.889
				c-5.462,0-9.889,4.427-9.889,9.889v59.334C135.324,98.118,139.751,102.545,145.213,102.545z"/>
			<path d="M75.107,102.545c5.461,0,9.889-4.428,9.889-9.889V33.322c0-5.462-4.427-9.889-9.889-9.889
				c-5.461,0-9.889,4.427-9.889,9.889v59.334C65.217,98.118,69.645,102.545,75.107,102.545z"/>
			<path d="M285.426,102.545c5.462,0,9.889-4.428,9.889-9.889V33.322c0-5.462-4.428-9.889-9.889-9.889s-9.889,4.427-9.889,9.889
				v59.334C275.537,98.118,279.964,102.545,285.426,102.545z"/>
			<path d="M70.106,166.581h107.35c8.284,0,15-6.716,15-15s-6.716-15-15-15H70.106c-8.284,0-15,6.716-15,15
				C55.106,159.866,61.822,166.581,70.106,166.581z"/>
			<path d="M70.106,213.632H289.13c8.284,0,15-6.716,15-15s-6.716-15-15-15H70.106c-8.284,0-15,6.716-15,15
				S61.822,213.632,70.106,213.632z"/>
			<path d="M70.106,260.684H289.13c8.284,0,15-6.716,15-15s-6.716-15-15-15H70.106c-8.284,0-15,6.716-15,15
				C55.106,253.968,61.822,260.684,70.106,260.684z"/>
		</g>
	</g>
</g>
</svg>