<svg width="25" height="24" viewBox="0 0 25 24" fill="none" xmlns="http://www.w3.org/2000/svg">
<path d="M4 18.75C4 17.5565 4.47411 16.4119 5.31802 15.568C6.16193 14.7241 7.30653 14.25 8.5 14.25H17.5C18.6935 14.25 19.8381 14.7241 20.682 15.568C21.5259 16.4119 22 17.5565 22 18.75C22 19.3467 21.7629 19.919 21.341 20.341C20.919 20.7629 20.3467 21 19.75 21H6.25C5.65326 21 5.08097 20.7629 4.65901 20.341C4.23705 19.919 4 19.3467 4 18.75Z" stroke="#9FC856" stroke-width="1.5" stroke-linejoin="round"/>
<path d="M13 9.75C14.864 9.75 16.375 8.23896 16.375 6.375C16.375 4.51104 14.864 3 13 3C11.136 3 9.625 4.51104 9.625 6.375C9.625 8.23896 11.136 9.75 13 9.75Z" stroke="#9FC856" stroke-width="1.5"/>
</svg>
